<svg xmlns="http://www.w3.org/2000/svg" width="24" height="24" viewBox="0 0 24 24">
  <g id="Group_552" data-name="Group 552" transform="translate(13043 -21919)">
    <g id="Rectangle_274" data-name="Rectangle 274" transform="translate(-13043 21919)" fill="#fff" stroke="#707070" stroke-width="1" opacity="0">
      <rect width="24" height="24" stroke="none"/>
      <rect x="0.5" y="0.5" width="23" height="23" fill="none"/>
    </g>
    <path id="Icon_awesome-twitter" data-name="Icon awesome-twitter" d="M14.015,6.543c.01.139.01.278.01.416a9.047,9.047,0,0,1-9.109,9.109A9.047,9.047,0,0,1,0,14.631a6.623,6.623,0,0,0,.773.04A6.412,6.412,0,0,0,4.748,13.3a3.207,3.207,0,0,1-2.993-2.22,4.037,4.037,0,0,0,.6.05,3.386,3.386,0,0,0,.843-.109A3.2,3.2,0,0,1,.634,7.881v-.04a3.224,3.224,0,0,0,1.447.406A3.206,3.206,0,0,1,1.09,3.966a9.1,9.1,0,0,0,6.6,3.35,3.614,3.614,0,0,1-.079-.733,3.2,3.2,0,0,1,5.541-2.191,6.3,6.3,0,0,0,2.032-.773,3.193,3.193,0,0,1-1.407,1.764,6.418,6.418,0,0,0,1.844-.5,6.882,6.882,0,0,1-1.606,1.655Z" transform="translate(-13038.811 21921.275)"/>
  </g>
</svg>
