<svg xmlns="http://www.w3.org/2000/svg" width="24" height="24" viewBox="0 0 24 24">
  <g id="Group_551" data-name="Group 551" transform="translate(13015 -21918)">
    <g id="Rectangle_272" data-name="Rectangle 272" transform="translate(-13015 21918)" fill="#fff" stroke="#707070" stroke-width="1" opacity="0">
      <rect width="24" height="24" stroke="none"/>
      <rect x="0.5" y="0.5" width="23" height="23" fill="none"/>
    </g>
    <path id="Icon_awesome-instagram" data-name="Icon awesome-instagram" d="M6.333,5.325A3.249,3.249,0,1,0,9.582,8.573,3.244,3.244,0,0,0,6.333,5.325Zm0,5.361A2.112,2.112,0,1,1,8.445,8.573,2.116,2.116,0,0,1,6.333,10.686Zm4.139-5.494a.758.758,0,1,1-.758-.758A.756.756,0,0,1,10.473,5.192Zm2.152.769A3.75,3.75,0,0,0,11.6,3.306,3.775,3.775,0,0,0,8.946,2.282c-1.046-.059-4.182-.059-5.228,0A3.769,3.769,0,0,0,1.063,3.3,3.762,3.762,0,0,0,.039,5.958C-.02,7-.02,10.14.039,11.186a3.75,3.75,0,0,0,1.024,2.655,3.779,3.779,0,0,0,2.655,1.024c1.046.059,4.182.059,5.228,0A3.75,3.75,0,0,0,11.6,13.841a3.775,3.775,0,0,0,1.024-2.655c.059-1.046.059-4.179,0-5.225Zm-1.352,6.348a2.138,2.138,0,0,1-1.2,1.2,13.965,13.965,0,0,1-3.735.254A14.074,14.074,0,0,1,2.6,13.513a2.138,2.138,0,0,1-1.2-1.2,13.965,13.965,0,0,1-.254-3.735,14.074,14.074,0,0,1,.254-3.735,2.138,2.138,0,0,1,1.2-1.2,13.965,13.965,0,0,1,3.735-.254,14.074,14.074,0,0,1,3.735.254,2.138,2.138,0,0,1,1.2,1.2,13.965,13.965,0,0,1,.254,3.735A13.957,13.957,0,0,1,11.273,12.309Z" transform="translate(-13009.254 21921.781)"/>
  </g>
</svg>
