<svg xmlns="http://www.w3.org/2000/svg" width="24" height="24" viewBox="0 0 24 24">
  <g id="Group_550" data-name="Group 550" transform="translate(12988 -21918)">
    <g id="Rectangle_275" data-name="Rectangle 275" transform="translate(-12988 21918)" fill="#fff" stroke="#707070" stroke-width="1" opacity="0">
      <rect width="24" height="24" stroke="none"/>
      <rect x="0.5" y="0.5" width="23" height="23" fill="none"/>
    </g>
    <path id="Icon_awesome-linkedin-in" data-name="Icon awesome-linkedin-in" d="M2.975,13.289H.22V4.417H2.975ZM1.6,3.207A1.6,1.6,0,1,1,3.191,1.6,1.609,1.609,0,0,1,1.6,3.207ZM13.286,13.289H10.537V8.971c0-1.029-.021-2.349-1.432-2.349C7.672,6.621,7.453,7.74,7.453,8.9v4.393H4.7V4.417H7.343v1.21h.039A2.9,2.9,0,0,1,9.988,4.195c2.788,0,3.3,1.836,3.3,4.221v4.874Z" transform="translate(-12981.816 21923.355)"/>
  </g>
</svg>
